# xmcd
#
# Track frame offsets: 
#        150
#        15439
#        29317
#        45961
#        58581
#        71002
#        84188
#        98009
#        114668
#        127317
#        140084
#        151369
#        169531
#        182969
#        195447
#        210215
#        222582
#        239432
#        255150
#        268584
#        287312
#
# Disc length: 4016 seconds
#
# Revision: 0
# Processed by: cddbd v1.5.1PL0 Copyright (c) Steve Scherf et al.
# Submitted via: ExactAudioCopy v0.95a5
#
DISCID=1e0fae15
DTITLE=Various Artist - Country Legends
DYEAR=2003
DGENRE=Country
TTITLE0=Johnny Paycheck - He Stopped Loving Her Today
TTITLE1=Lynn Anderson - Rose Garden
TTITLE2=Faron Young - For The Good Times
TTITLE3=Jack Greene - I Can't Stop Loving You
TTITLE4=Skeeter Davis - Sweet Dreams
TTITLE5=Stu Phillips - Pleaswe Help Me I'm Falling
TTITLE6=Roy Drusky - Since I Fell For You
TTITLE7=Freddy Weller - Stand By Me
TTITLE8=Sandy Posey - I Fall To Pieces
TTITLE9=Bily Walker - Love Me Tender
TTITLE10=Ernie Ashworth - I Can't Help It (If I'm Still In Love With Y
TTITLE10=ou)
TTITLE11=Tommy Overstreet - Georgia
TTITLE12=Wilma Burgess - Satin Sheets
TTITLE13=Ferlin Husky - Mountain Of Love
TTITLE14=Johnny Paycheck - Friend, Lover, Wife
TTITLE15=Lynn Anderson - Stand By Your Man
TTITLE16=Mac Wiseman - Have I Told You Lately That I Love You?
TTITLE17=Donna Fargo - I Honestly Love You
TTITLE18=Jerry Wallace - Funny How Time Slips Away
TTITLE19=Faron Young - She Believes In Me
TTITLE20=Melba Montgomery - Help Me Make It Through The Night
EXTD=
EXTT0=
EXTT1=
EXTT2=
EXTT3=
EXTT4=
EXTT5=
EXTT6=
EXTT7=
EXTT8=
EXTT9=
EXTT10=
EXTT11=
EXTT12=
EXTT13=
EXTT14=
EXTT15=
EXTT16=
EXTT17=
EXTT18=
EXTT19=
EXTT20=
PLAYORDER=
